<svg width="31" height="36" viewBox="0 0 31 36" fill="none" xmlns="http://www.w3.org/2000/svg">
<path d="M14.5882 36C13.5853 36 12.727 35.6478 12.0134 34.9434C11.2998 34.239 10.9424 33.3912 10.9412 32.4H18.2353C18.2353 33.39 17.8785 34.2378 17.1649 34.9434C16.4513 35.649 15.5924 36.0012 14.5882 36ZM0 30.6V27H3.64706V14.4C3.64706 11.91 4.40686 9.6978 5.92647 7.7634C7.44608 5.829 9.42157 4.5612 11.8529 3.96V2.7C11.8529 1.95 12.1192 1.3128 12.6516 0.788404C13.1841 0.264004 13.8296 0.00120409 14.5882 4.09091e-06C15.3468 -0.00119591 15.993 0.261604 16.5266 0.788404C17.0603 1.3152 17.326 1.9524 17.3235 2.7V3.285C17.0196 3.885 16.7917 4.515 16.6397 5.175C16.4877 5.835 16.4118 6.51 16.4118 7.2C16.4118 9.69 17.301 11.8128 19.0796 13.5684C20.8581 15.324 23.0081 16.2012 25.5294 16.2V27H29.1765V30.6H0ZM25.5294 12.6C24.0098 12.6 22.7181 12.075 21.6544 11.025C20.5907 9.975 20.0588 8.7 20.0588 7.2C20.0588 5.7 20.5907 4.425 21.6544 3.375C22.7181 2.325 24.0098 1.8 25.5294 1.8C27.049 1.8 28.3407 2.325 29.4044 3.375C30.4681 4.425 31 5.7 31 7.2C31 8.7 30.4681 9.975 29.4044 11.025C28.3407 12.075 27.049 12.6 25.5294 12.6Z" fill="#DF508E"/>
</svg>
