<svg width="27" height="30" viewBox="0 0 27 30" fill="none" xmlns="http://www.w3.org/2000/svg">
<path d="M2.7 30V27.2727H24.3V30H2.7ZM2.7 2.72727V0H24.3V2.72727H2.7ZM13.5 16.3636C14.625 16.3636 15.5812 15.9659 16.3687 15.1705C17.1562 14.375 17.55 13.4091 17.55 12.2727C17.55 11.1364 17.1562 10.1705 16.3687 9.375C15.5812 8.57955 14.625 8.18182 13.5 8.18182C12.375 8.18182 11.4187 8.57955 10.6312 9.375C9.84375 10.1705 9.45 11.1364 9.45 12.2727C9.45 13.4091 9.84375 14.375 10.6312 15.1705C11.4187 15.9659 12.375 16.3636 13.5 16.3636ZM2.7 25.9091C1.9575 25.9091 1.3221 25.6423 0.7938 25.1086C0.2655 24.575 0.0009 23.9327 0 23.1818V6.81818C0 6.06818 0.2646 5.42636 0.7938 4.89273C1.323 4.35909 1.9584 4.09182 2.7 4.09091H24.3C25.0425 4.09091 25.6783 4.35818 26.2075 4.89273C26.7367 5.42727 27.0009 6.06909 27 6.81818V23.1818C27 23.9318 26.7358 24.5741 26.2075 25.1086C25.6792 25.6432 25.0434 25.91 24.3 25.9091H2.7ZM5.0625 23.1818H21.9375C20.925 21.9091 19.6987 20.9091 18.2587 20.1818C16.8187 19.4545 15.2325 19.0909 13.5 19.0909C11.7675 19.0909 10.1812 19.4545 8.74125 20.1818C7.30125 20.9091 6.075 21.9091 5.0625 23.1818Z" fill="#DF508E"/>
</svg>
