<svg width="26" height="31" viewBox="0 0 26 31" fill="none" xmlns="http://www.w3.org/2000/svg">
<path d="M13.0003 0C7.68625 0 3.33125 4.1416 3.33125 9.19646C3.33125 11.155 3.9871 12.9754 5.09697 14.4714L11.8202 25.558C12.7618 26.7313 13.3877 26.5084 14.1706 25.496L21.5865 13.4587C21.736 13.2001 21.8536 12.9248 21.956 12.6437C22.4264 11.5498 22.6684 10.3788 22.6684 9.19646C22.6687 4.1416 18.3151 0 13.0003 0ZM13.0003 4.309C15.8623 4.309 18.1379 6.47466 18.1379 9.19646C18.1379 11.9183 15.8623 14.0833 13.0003 14.0833C10.1387 14.0833 7.86208 11.9189 7.86208 9.19677C7.86208 6.47466 10.139 4.309 13.0003 4.309Z" fill="#DF508E"/>
<path d="M19.1467 15.1615L19.1311 15.2005L19.1448 15.1649L19.1467 15.1615ZM7.80195 21.4077C3.211 22.0264 0 23.5067 0 25.6857C0 28.6208 5.3651 31 13 31C20.6349 31 26 28.6208 26 25.6857C26 23.5067 22.7893 22.0264 18.1987 21.4077L17.5627 22.4406C21.0226 22.8985 23.4 23.8607 23.4 24.9773C23.4 26.5428 18.7437 27.8116 13 27.8116C7.25627 27.8116 2.6 26.5428 2.6 24.9773C2.59967 23.8644 4.96145 22.9031 8.43212 22.4434L7.80195 21.4077Z" fill="#DF508E"/>
</svg>
