<svg width="59" height="55" viewBox="0 0 59 55" fill="none" xmlns="http://www.w3.org/2000/svg">
<path fill-rule="evenodd" clip-rule="evenodd" d="M35.3256 0.719941C30.88 2.79625 30.1432 5.19052 32.273 10.6394L32.7413 11.8375L33.5545 8.75074C34.3568 5.7052 35.1029 3.60524 35.3102 3.8085C35.5314 4.02483 34.6921 7.76666 33.9478 9.88322L33.1735 12.0858L34.2643 11.3508C35.7644 10.3403 37.2103 8.71803 37.8262 7.35487C38.5165 5.8272 38.3683 3.1854 37.4873 1.31612L36.8671 0L35.3256 0.719941ZM13.6544 3.83969C12.5988 7.32745 13.1969 9.40653 15.7051 10.9677C16.823 11.6632 19.7913 12.9127 19.9522 12.7552C20.0149 12.6938 19.3076 11.5098 18.3804 10.1242C17.4532 8.73866 16.5093 7.16923 16.2824 6.63669L15.8703 5.66822L16.4432 6.17132C17.2484 6.87843 18.3524 8.49541 19.6367 10.8492L20.7378 12.8669L20.8997 11.909C21.6206 7.63711 20.1302 4.41373 16.7628 2.96127C14.1143 1.81872 14.2805 1.77168 13.6544 3.83969ZM25.2559 7.86779C23.6574 9.58589 23.8 11.2245 25.6988 12.9632C26.3681 13.576 26.494 13.6233 26.3686 13.2148C26.1862 12.6214 25.6914 10.1043 25.6914 9.76952C25.6914 9.64198 25.7988 9.60274 25.9303 9.68223C26.0616 9.76172 26.3134 10.7023 26.4896 11.7724L26.8102 13.7179L27.2716 12.7117C28.1123 10.8789 27.8019 9.14592 26.4043 7.86779L25.7836 7.30054L25.2559 7.86779ZM38.1517 11.0627C37.0981 11.4851 36.6454 12.2908 36.5483 13.9158C36.445 15.6518 36.4042 15.6646 37.9736 13.4681C38.441 12.8141 38.8836 12.3384 38.9576 12.4106C39.1118 12.5617 38.5168 13.5365 37.4105 14.9444C36.649 15.9132 36.6482 15.9182 37.2694 15.7356C39.3109 15.1356 40.5924 13.6638 40.5924 11.9198V10.825L39.6289 10.8409C39.0992 10.8497 38.4343 10.9495 38.1517 11.0627ZM46.4867 15.0471C45.3422 15.767 44.0471 17.4119 42.9421 19.5494L42.3979 20.6016L44.517 19.4978C46.87 18.2722 50.0982 17.0099 50.0982 17.3153C50.0982 17.635 47.0563 19.2515 44.7371 20.1641L42.5876 21.0101L43.7095 21.3361C44.3266 21.5155 45.651 21.6684 46.6524 21.6765C49.8793 21.7019 52.172 20.2474 53.5914 17.2748L54.2088 15.9818L52.6031 15.235C51.4683 14.707 50.5074 14.462 49.3274 14.3993C47.8363 14.3201 47.5321 14.3895 46.4867 15.0471ZM12.8457 15.8641C12.8457 17.9756 14.1744 19.1262 16.6128 19.1262H17.8272L16.1005 17.9588C15.1507 17.3168 14.4239 16.7425 14.485 16.6827C14.6533 16.5179 16.0204 17.2617 16.9363 18.0164C17.3833 18.3847 17.8113 18.6244 17.8879 18.5497C17.9644 18.4747 17.7938 17.8977 17.5092 17.2673C16.8533 15.8158 15.7208 15.1037 14.066 15.1024C12.8783 15.1014 12.8457 15.1218 12.8457 15.8641ZM3.42055 20.5847C1.7727 21.1608 0 22.2852 0 22.7546C0 23.1224 1.62369 25.2309 2.47716 25.9715C3.24431 26.6371 4.76112 27.1759 5.86842 27.1759C7.18562 27.1759 8.68702 26.6403 10.6259 25.4794L12.2034 24.5346L10.9188 24.3681C10.2123 24.2763 9.06571 24.1915 8.37076 24.1794C7.67581 24.1671 6.34628 24.0252 5.41625 23.864C3.73244 23.5719 3.7291 23.5697 4.62445 23.3355C5.42781 23.1252 8.88562 23.3604 11.6824 23.8157C12.4441 23.9397 12.4326 23.9165 11.1377 22.7061C8.70526 20.432 5.99123 19.6859 3.42055 20.5847ZM58.4615 22.4216C58.7818 26.2894 57.8582 31.4696 56.1323 35.4849C52.5324 43.8593 44.4938 50.412 35.3703 52.4093C33.742 52.7658 33.6303 52.763 33.8055 52.3734C34.7278 50.3212 37.6178 41.2195 38.172 38.6215C39.0375 34.5622 39.3075 27.5198 38.7166 24.4088C38.406 22.775 38.3341 22.6233 38.1794 23.2768C37.4711 26.2678 36.2927 29.097 34.5122 32.0812C33.4394 33.8798 32.5232 35.3939 32.4767 35.4459C32.4302 35.4977 32.0716 35.1581 31.6795 34.6913C29.5826 32.1926 26.013 29.7279 20.7566 27.1497C18.8115 26.1956 17.177 25.415 17.1241 25.415C17.0714 25.415 18.1805 26.5188 19.5886 27.8677C24.5997 32.6675 28.6132 38.2115 30.3508 42.7329C31.1202 44.7352 31.1885 45.1531 31.2011 47.9289C31.2127 50.4651 31.1328 51.1083 30.7002 51.9538L30.1853 52.96L28.3111 53.0342C24.5514 53.1828 18.8847 51.7654 15.0246 49.7107C12.9043 48.5817 12.3902 48.0565 13.4024 48.0522C14.186 48.0489 16.4497 47.002 17.0108 46.3831C17.2525 46.1165 17.6389 45.4567 17.8691 44.9171C18.3724 43.7378 18.6969 39.4006 18.3 39.1603C18.1494 39.0693 17.55 39.7462 16.9399 40.6961C15.367 43.1452 13.5342 45.4237 13.416 45.0766C13.2752 44.6625 14.4003 42.8476 16.3443 40.3529C17.2482 39.193 17.9254 38.2442 17.8491 38.2442C17.773 38.2442 17.0118 38.4749 16.1573 38.7566C12.413 39.9917 10.7539 41.8643 10.3079 45.3588L10.1481 46.6113L8.83577 45.4552C7.00295 43.8405 4.83486 41.1831 3.33166 38.7093C1.72132 36.0587 1.69203 36.3437 3.2682 39.3316C11.072 54.1259 29.9238 59.4311 44.575 50.9561C54.3981 45.2741 60.0276 34.3592 58.844 23.2907C58.4915 19.9938 58.2066 19.3469 58.4615 22.4216ZM26.663 23.4668C25.9321 24.0577 25.4345 25.0762 25.4345 25.9808C25.4345 26.9025 26.4184 28.5355 27.3428 29.1478C28.3419 29.8102 30.0954 29.9593 31.0429 29.4628C31.8306 29.05 32.626 27.7208 32.627 26.8152C32.6285 25.6988 31.6682 23.9877 30.7169 23.4122C29.5255 22.6912 27.5897 22.7171 26.663 23.4668ZM44.7569 26.2263C44.2922 26.3443 43.5623 26.6489 43.1353 26.9032L42.3589 27.3653L44.2999 27.5434C45.3676 27.6415 46.3167 27.8415 46.4091 27.9879C46.5731 28.2475 43.4418 28.0737 42.4288 27.7668C41.7269 27.5545 43.4798 28.9509 44.4235 29.3559C45.4118 29.7802 46.7197 29.6388 47.8502 28.9853C48.7697 28.4535 48.7411 28.128 47.6839 27.0929C46.6982 26.1277 45.9819 25.9156 44.7569 26.2263ZM12.8095 31.9951C12.2949 32.2872 11.6212 32.9659 11.3127 33.5034L10.7518 34.4807L11.6621 34.8533C13.2218 35.4915 14.4278 35.3451 15.3336 34.408C16.0651 33.6514 16.6994 32.6932 16.6994 32.345C16.6994 32.2643 16.1141 32.4889 15.3989 32.8439C14.6834 33.1988 13.7991 33.6005 13.4338 33.7364C12.8691 33.9467 12.8154 33.9293 13.0759 33.6219C13.2447 33.4229 14.1487 32.9412 15.0852 32.5516C16.5827 31.9285 16.713 31.8226 16.1655 31.6726C14.9781 31.3476 13.74 31.4666 12.8095 31.9951ZM42.6358 37.2571C45.2034 38.8829 47.3566 40.5094 47.1758 40.6865C46.8593 40.9964 43.978 39.1795 40.357 36.3865C40.0549 36.1535 40.0236 36.225 40.1718 36.8081C41.3472 41.4281 43.8934 43.5975 48.1194 43.5793C49.2301 43.5746 50.2081 43.5029 50.2926 43.4201C50.5922 43.1268 49.8271 39.4084 49.2604 38.4034C48.1497 36.4338 46.4166 35.7322 42.6551 35.7302L40.2219 35.7287L42.6358 37.2571ZM23.0801 39.3674C21.8233 40.2038 21.22 41.5229 21.4251 42.9872C21.6324 44.4696 21.8433 44.6532 22.9324 44.3013C24.7953 43.6993 25.5054 42.1108 24.8528 40.0051L24.5021 38.8731L23.9366 40.5082C23.6258 41.4075 23.2592 42.313 23.1222 42.5206C22.6187 43.2835 22.864 41.9236 23.5058 40.3955C23.8511 39.5726 24.1021 38.868 24.063 38.83C24.024 38.7918 23.5818 39.0338 23.0801 39.3674Z" fill="url(#paint0_linear_117_262)"/>
<defs>
<linearGradient id="paint0_linear_117_262" x1="15.7333" y1="8.02083" x2="52.4657" y2="43.0902" gradientUnits="userSpaceOnUse">
<stop stop-color="#FF5CA2"/>
<stop offset="1" stop-color="#993761"/>
</linearGradient>
</defs>
</svg>
