<svg width="20" height="18" viewBox="0 0 20 18" fill="none" xmlns="http://www.w3.org/2000/svg">
<path d="M16.4072 0.0502558C16.0921 -0.106232 15.7274 0.119925 15.697 0.490779C15.6745 0.760881 15.652 1.09851 15.6363 1.49187H15.1636C14.1183 1.49171 13.0937 1.76878 12.2045 2.29205C11.3153 2.81531 10.5967 3.56408 10.1293 4.45442L9.00383 6.59808L7.87835 4.45442C7.411 3.56424 6.69259 2.81558 5.80363 2.29233C4.91467 1.76908 3.89026 1.49191 2.84521 1.49187H1.12548C0.826983 1.49187 0.540713 1.6048 0.329645 1.8058C0.118577 2.00681 0 2.27944 0 2.5637C0 2.84797 0.118577 3.1206 0.329645 3.32161C0.540713 3.52261 0.826983 3.63554 1.12548 3.63554H2.84521C3.47197 3.63576 4.08629 3.80211 4.6194 4.11597C5.15251 4.42983 5.58337 4.8788 5.86374 5.41264L7.74554 8.9947L5.86599 12.5768C5.58537 13.1111 5.15398 13.5604 4.62022 13.8743C4.08645 14.1882 3.47141 14.3542 2.84408 14.3539H1.12548C0.826983 14.3539 0.540713 14.4668 0.329645 14.6678C0.118577 14.8688 0 15.1414 0 15.4257C0 15.71 0.118577 15.9826 0.329645 16.1836C0.540713 16.3846 0.826983 16.4975 1.12548 16.4975H2.84521C3.89026 16.4975 4.91467 16.2203 5.80363 15.6971C6.69259 15.1738 7.411 14.4252 7.87835 13.535L9.00383 11.3913L10.1293 13.535C10.5967 14.4252 11.3151 15.1738 12.204 15.6971C13.093 16.2203 14.1174 16.4975 15.1624 16.4975H15.6363C15.6543 16.922 15.679 17.2821 15.7038 17.5608C15.7331 17.9081 16.0662 18.0999 16.3757 17.9467C16.7899 17.7409 17.3954 17.4193 18.1202 16.9713C18.6916 16.6181 19.2459 16.2405 19.7814 15.8394C20.0605 15.6294 20.0729 15.2242 19.8073 15.0227C19.2652 14.6132 18.7025 14.2291 18.1213 13.8715C17.5659 13.5266 16.9939 13.2065 16.4072 12.9123C16.0921 12.7558 15.7274 12.9819 15.697 13.3528C15.6745 13.6229 15.652 13.9605 15.6363 14.3539H15.1636C14.5364 14.354 13.9216 14.1879 13.3881 13.874C12.8545 13.5601 12.4233 13.1109 12.1428 12.5768L10.2621 8.9947L12.1417 5.41264C12.4223 4.87832 12.8537 4.42901 13.3874 4.11512C13.9212 3.80123 14.5362 3.63516 15.1636 3.63554H15.6374C15.6554 4.05998 15.6802 4.42012 15.7049 4.6988C15.7342 5.04607 16.0673 5.23793 16.3768 5.08466C16.791 4.87886 17.3965 4.55731 18.1213 4.10929C18.6928 3.75614 19.2471 3.37846 19.7825 2.97743C20.0616 2.76735 20.074 2.3622 19.8084 2.1607C19.2663 1.75123 18.7037 1.36706 18.1224 1.00955C17.567 0.664647 16.995 0.344538 16.4083 0.0502558H16.4072Z" fill="white"/>
</svg>
