<svg width="16" height="15" viewBox="0 0 16 15" fill="none" xmlns="http://www.w3.org/2000/svg">
<path d="M5.76362 0.844921V1.8441C5.76355 1.91936 5.78045 1.99368 5.8131 2.06166C5.84575 2.12965 5.89333 2.18959 5.95237 2.23711L11.7362 6.84001C11.8303 6.92006 11.9058 7.01922 11.9575 7.13073C12.0093 7.24224 12.0361 7.36347 12.0361 7.48615C12.0361 7.60883 12.0093 7.73006 11.9575 7.84157C11.9058 7.95308 11.8303 8.05224 11.7362 8.13229L5.9726 12.7818C5.9137 12.828 5.86614 12.8867 5.83345 12.9536C5.80077 13.0205 5.78381 13.0939 5.78385 13.1682L5.78384 14.1673C5.78384 14.322 5.82742 14.4736 5.90969 14.6051C5.99196 14.7366 6.10968 14.8429 6.24964 14.9121C6.38961 14.9812 6.5463 15.0105 6.70215 14.9966C6.85801 14.9827 7.00687 14.9262 7.13206 14.8335L15.6797 8.17226C15.7798 8.09167 15.8605 7.99009 15.9159 7.87487C15.9713 7.75965 16 7.63369 16 7.50613C16 7.37858 15.9713 7.25262 15.9159 7.1374C15.8605 7.02218 15.7798 6.9206 15.6797 6.84001L7.12532 0.178799C7.00119 0.0815293 6.85164 0.0211187 6.6941 0.00460779C6.53656 -0.0119031 6.37752 0.016166 6.2355 0.0855428C6.09263 0.155578 5.9726 0.263944 5.88915 0.398239C5.8057 0.532535 5.7622 0.687334 5.76362 0.844921Z" fill="white"/>
<path d="M9.91613 8.17226C10.0162 8.09167 10.0969 7.99009 10.1522 7.87487C10.2076 7.75965 10.2364 7.63369 10.2364 7.50613C10.2364 7.37858 10.2076 7.25262 10.1522 7.1374C10.0969 7.02218 10.0162 6.92059 9.91613 6.84001L1.3617 0.178799C1.23757 0.0815288 1.08802 0.0211182 0.93048 0.00460729C0.77294 -0.0119036 0.613895 0.0161655 0.471877 0.0855423C0.331064 0.154573 0.212398 0.260861 0.129088 0.392579C0.0457772 0.524296 0.00109043 0.676274 1.17983e-06 0.831598L0 14.1673C-1.36806e-08 14.322 0.0435772 14.4736 0.125847 14.6051C0.208118 14.7366 0.32583 14.8429 0.465797 14.9121C0.605763 14.9812 0.762453 15.0105 0.918308 14.9966C1.07416 14.9827 1.22303 14.9262 1.34822 14.8335L9.91613 8.17226Z" fill="white"/>
</svg>
