<svg width="81" height="75" viewBox="0 0 81 75" fill="none" xmlns="http://www.w3.org/2000/svg">
<path fill-rule="evenodd" clip-rule="evenodd" d="M48.4979 0.981738C42.3946 3.81307 41.383 7.07798 44.307 14.5083L44.95 16.1421L46.0663 11.9328C47.1678 7.77981 48.1921 4.91624 48.4767 5.1934C48.7804 5.4884 47.6281 10.5909 46.6063 13.4771L45.5432 16.4806L47.0408 15.4783C49.1003 14.1004 51.0854 11.8882 51.9308 10.0294C52.8786 7.94618 52.6751 4.34373 51.4656 1.79471L50.6142 0L48.4979 0.981738ZM18.7459 5.23594C17.2966 9.99198 18.1178 12.8271 21.5613 14.9559C23.0959 15.9044 27.1712 17.6082 27.392 17.3934C27.478 17.3097 26.507 15.6951 25.2341 13.8057C23.9611 11.9164 22.6653 9.77622 22.3538 9.05004L21.7881 7.72939L22.5746 8.41544C23.68 9.37968 25.1956 11.5847 26.9588 14.7943L28.4706 17.5457L28.6928 16.2395C29.6825 10.4142 27.6364 6.01872 23.0134 4.03809C19.3773 2.48007 19.6055 2.41593 18.7459 5.23594ZM34.6734 10.7288C32.4788 13.0717 32.6745 15.3061 35.2814 17.6771C36.2002 18.5127 36.3731 18.5772 36.201 18.0201C35.9505 17.211 35.2712 13.7786 35.2712 13.3221C35.2712 13.1482 35.4186 13.0946 35.5992 13.203C35.7795 13.3114 36.1251 14.594 36.3671 16.0532L36.8073 18.7062L37.4407 17.3341C38.5948 14.8348 38.1687 12.4717 36.25 10.7288L35.3978 9.95528L34.6734 10.7288ZM52.3777 15.0856C50.9313 15.6615 50.3098 16.7602 50.1765 18.9762C50.0347 21.3434 49.9786 21.3609 52.1333 18.3656C52.7749 17.4737 53.3826 16.825 53.4842 16.9235C53.6958 17.1297 52.8789 18.4589 51.3602 20.3788C50.3147 21.6998 50.3137 21.7066 51.1665 21.4576C53.9692 20.6395 55.7285 18.6324 55.7285 16.2543V14.7614L54.4058 14.783C53.6785 14.795 52.7657 14.9312 52.3777 15.0856ZM63.8208 20.5187C62.2494 21.5005 60.4714 23.7435 58.9544 26.6582L58.2074 28.0931L61.1165 26.5879C64.347 24.9167 68.7788 23.1954 68.7788 23.6118C68.7788 24.0478 64.6027 26.2521 61.4188 27.4966L58.4677 28.6502L60.0079 29.0947C60.8552 29.3393 62.6734 29.5479 64.0483 29.5588C68.4783 29.5935 71.6259 27.6101 73.5747 23.5566L74.4222 21.7934L72.2178 20.775C70.6599 20.055 69.3407 19.7209 67.7207 19.6355C65.6736 19.5274 65.256 19.6221 63.8208 20.5187ZM17.6356 21.6329C17.6356 24.5122 19.4598 26.0812 22.8074 26.0812H24.4747L22.1041 24.4893C20.8001 23.6139 19.8023 22.8307 19.8863 22.7491C20.1173 22.5244 21.9941 23.5387 23.2515 24.5678C23.8652 25.07 24.4528 25.3969 24.5579 25.295C24.663 25.1928 24.4288 24.4059 24.038 23.5463C23.1376 21.567 21.5828 20.5959 19.311 20.5942C17.6804 20.5928 17.6356 20.6206 17.6356 21.6329ZM4.69601 28.0701C2.43371 28.8556 0 30.389 0 31.029C0 31.5305 2.22914 34.4058 3.40085 35.4156C4.45405 36.3233 6.53646 37.058 8.05665 37.058C9.865 37.058 11.9263 36.3277 14.5882 34.7447L16.7538 33.4563L14.9903 33.2292C14.0203 33.104 12.4461 32.9884 11.4921 32.9719C10.538 32.9551 8.71269 32.7617 7.43587 32.5418C5.1242 32.1435 5.11961 32.1404 6.34882 31.8211C7.45175 31.5343 12.1989 31.855 16.0385 32.4759C17.0843 32.645 17.0684 32.6135 15.2908 30.9628C11.9513 27.8619 8.22524 26.8445 4.69601 28.0701ZM80.2607 30.5749C80.7005 35.8492 79.4325 42.9132 77.063 48.3885C72.1208 59.8082 61.0848 68.7436 48.5593 71.4673C46.3238 71.9533 46.1704 71.9496 46.4109 71.4182C47.6771 68.6198 51.6448 56.2085 52.4056 52.6657C53.5939 47.1303 53.9646 37.527 53.1533 33.2848C52.7269 31.0568 52.6282 30.85 52.4158 31.7412C51.4434 35.8197 49.8255 39.6777 47.3812 43.747C45.9083 46.1997 44.6505 48.2643 44.5867 48.3354C44.5228 48.406 44.0304 47.9429 43.4922 47.3063C40.6134 43.899 35.7128 40.538 28.4963 37.0224C25.8259 35.7213 23.582 34.6569 23.5093 34.6569C23.437 34.6569 24.9597 36.1621 26.8929 38.0014C33.7725 44.5466 39.2826 52.1066 41.668 58.2721C42.7244 61.0026 42.8182 61.5723 42.8355 65.3576C42.8513 68.816 42.7416 69.6931 42.1477 70.846L41.4408 72.2181L38.8678 72.3193C33.7062 72.5221 25.9264 70.5891 20.627 67.7873C17.716 66.2478 17.0102 65.5315 18.3999 65.5257C19.4757 65.5213 22.5834 64.0936 23.3538 63.2497C23.6857 62.8861 24.2161 61.9864 24.5322 61.2506C25.2231 59.6425 25.6686 53.7281 25.1237 53.4005C24.917 53.2763 24.0941 54.1994 23.2564 55.4946C21.0971 58.8343 18.5809 61.9414 18.4186 61.4681C18.2253 60.9035 19.7699 58.4285 22.4388 55.0267C23.6797 53.4451 24.6094 52.1512 24.5047 52.1512C24.4003 52.1512 23.3552 52.4657 22.1821 52.8499C17.0416 54.5342 14.7638 57.0876 14.1515 61.8529L13.9321 63.5609L12.1305 61.9843C9.61422 59.7824 6.63769 56.1587 4.57397 52.7854C2.36317 49.171 2.32296 49.5596 4.48685 53.6341C15.2005 73.8081 41.0818 81.0425 61.1962 69.4856C74.6822 61.7373 82.4108 46.8535 80.7859 31.76C80.3019 27.2643 79.9108 26.3821 80.2607 30.5749ZM36.6052 32.0001C35.6017 32.8059 34.9185 34.1948 34.9185 35.4283C34.9185 36.6852 36.2694 38.9121 37.5384 39.747C38.9101 40.6502 41.3174 40.8536 42.6182 40.1765C43.6996 39.6136 44.7916 37.801 44.793 36.5662C44.7951 35.0438 43.4767 32.7105 42.1706 31.9257C40.5351 30.9426 37.8774 30.9779 36.6052 32.0001ZM61.446 35.7631C60.8079 35.924 59.8058 36.3394 59.2196 36.6862L58.1537 37.3163L60.8185 37.5592C62.2844 37.693 63.5873 37.9657 63.7143 38.1653C63.9393 38.5193 59.6404 38.2823 58.2497 37.8638C57.2861 37.5743 59.6926 39.4784 60.9881 40.0307C62.345 40.6094 64.1407 40.4166 65.6926 39.5254C66.955 38.8003 66.9158 38.3564 65.4644 36.9448C64.111 35.6287 63.1277 35.3395 61.446 35.7631ZM17.5859 43.6297C16.8794 44.028 15.9546 44.9535 15.531 45.6865L14.761 47.0192L16.0107 47.5272C18.152 48.3974 19.8076 48.1978 21.0513 46.92C22.0554 45.8882 22.9263 44.5816 22.9263 44.1069C22.9263 43.9968 22.1228 44.3031 21.1409 44.7871C20.1585 45.2711 18.9445 45.8189 18.443 46.0042C17.6677 46.2909 17.594 46.2673 17.9516 45.8481C18.1834 45.5767 19.4246 44.9198 20.7102 44.3885C22.7661 43.5388 22.945 43.3944 22.1933 43.19C20.5631 42.7468 18.8634 42.909 17.5859 43.6297ZM58.534 50.8051C62.059 53.0221 65.0151 55.2401 64.7667 55.4816C64.3322 55.9042 60.3765 53.4265 55.4054 49.6179C54.9906 49.3003 54.9476 49.3977 55.1511 50.1928C56.7648 56.4928 60.2605 59.4511 66.0623 59.4264C67.587 59.4199 68.9298 59.3221 69.0458 59.2093C69.4571 58.8093 68.4067 53.7387 67.6286 52.3683C66.1039 49.6824 63.7245 48.7257 58.5604 48.723L55.2199 48.7209L58.534 50.8051ZM31.6862 53.6828C29.9608 54.8233 29.1326 56.6222 29.4141 58.6189C29.6987 60.6404 29.9883 60.8908 31.4834 60.4109C34.0409 59.59 35.0158 57.4238 34.1199 54.5523L33.6385 53.0087L32.8622 55.2384C32.4354 56.4647 31.9321 57.6996 31.7441 57.9826C31.0528 59.023 31.3896 57.1686 32.2707 55.0847C32.7447 53.9627 33.0893 53.0019 33.0357 52.9501C32.9821 52.8979 32.3751 53.2279 31.6862 53.6828Z" fill="white"/>
</svg>
